<?xml version="1.0" standalone="no"?>
<!DOCTYPE svg PUBLIC "-//W3C//DTD SVG 20010904//EN"
 "http://www.w3.org/TR/2001/REC-SVG-20010904/DTD/svg10.dtd">
<svg version="1.0" xmlns="http://www.w3.org/2000/svg"
 width="503.000000pt" height="496.000000pt" viewBox="0 0 503.000000 496.000000"
 preserveAspectRatio="xMidYMid meet">

<g transform="translate(0.000000,496.000000) scale(0.100000,-0.100000)"
fill="#000000" stroke="none">
<path d="M2834 3172 c-6 -4 -37 -61 -69 -127 -75 -154 -188 -390 -230 -480
-39 -83 -133 -279 -240 -500 -166 -342 -215 -449 -215 -464 0 -13 99 -15 117
-3 10 7 83 153 233 467 26 55 77 161 113 235 36 74 83 173 105 220 22 47 69
146 105 220 192 399 205 429 190 434 -21 8 -96 7 -109 -2z"/>
<path d="M1273 2669 c-222 -109 -403 -200 -403 -203 0 -2 39 -23 88 -47 167
-81 458 -222 587 -285 121 -60 131 -63 139 -45 5 11 6 39 2 63 l-7 44 -127 61
c-177 86 -320 153 -326 153 -12 0 -116 53 -116 59 0 3 26 17 58 30 57 25 504
240 510 246 8 8 13 113 6 117 -5 3 -190 -84 -411 -193z"/>
<path d="M3344 2856 c-3 -7 -4 -35 -2 -62 l3 -49 165 -82 c91 -45 220 -105
288 -134 67 -30 122 -56 122 -60 0 -8 -24 -19 -157 -78 -148 -65 -407 -193
-415 -205 -10 -14 -10 -88 0 -103 5 -8 38 4 112 41 58 28 237 116 398 194 160
79 292 147 292 153 0 5 -55 36 -122 68 -68 32 -248 120 -401 195 -201 98 -279
132 -283 122z"/>
</g>
</svg>
